<svg width="14" height="13" viewBox="0 0 14 13" fill="none" xmlns="http://www.w3.org/2000/svg">
<path d="M2.55596 7.81157C2.40625 7.68016 2.28648 7.57475 2.1987 7.49739V7.45147L2.02296 7.27574C1.32915 6.58193 0.932031 5.66547 0.932031 4.7V4.57612C0.9935 2.7062 2.59056 1.16667 4.46536 1.16667C4.74364 1.16667 5.11285 1.26344 5.4809 1.46162C5.82823 1.64864 6.1331 1.90383 6.33555 2.18842C6.63003 2.81494 7.53783 2.80366 7.81023 2.15457C7.97797 1.86092 8.27196 1.5955 8.62427 1.39902C8.9919 1.194 9.35835 1.1 9.5987 1.1C11.528 1.1 13.0704 2.62742 13.132 4.57581V4.7C13.132 5.74201 12.7286 6.64473 12.0599 7.25771L11.8654 7.43606V7.47957C11.7643 7.56525 11.634 7.67766 11.4821 7.80974C11.1449 8.1029 10.6935 8.49999 10.202 8.93321C10.0443 9.0722 9.88243 9.21492 9.71883 9.35919C8.86259 10.1143 7.95806 10.9119 7.34469 11.4417C7.16816 11.5861 6.89589 11.5861 6.71937 11.4417C5.98716 10.8093 4.82455 9.7962 3.8352 8.93155C3.33957 8.4984 2.88783 8.10286 2.55596 7.81157Z" stroke="#6B7280" stroke-width="1.2"/>
</svg>
