<svg width="24" height="24" viewBox="0 0 24 24" fill="none" xmlns="http://www.w3.org/2000/svg">
<g clip-path="url(#clip0_181_4240)">
<circle cx="12" cy="12" r="12" fill="#D1D5DB"/>
<path d="M11.6244 5.23771C11.9306 6.29594 11.1209 7.46201 10.1928 7.7324C9.26469 8.00278 7.99673 7.44199 7.69051 6.38376C7.38429 5.32553 8.02713 3.85928 8.95523 3.58889C10.1928 3.22835 11.3181 4.17948 11.6244 5.23771Z" fill="white"/>
<path d="M12.1335 5.23771C11.8272 6.29594 12.6369 7.46201 13.565 7.7324C14.4931 8.00278 15.7611 7.44199 16.0673 6.38376C16.3735 5.32553 15.7307 3.85928 14.8026 3.58889C13.565 3.22835 12.4397 4.17948 12.1335 5.23771Z" fill="white"/>
<path d="M17.8799 12.969C17.8799 15.6606 15.2407 16.6611 11.6406 16.6611C8.04048 16.6611 5.46094 15.6606 5.46094 12.969C5.46094 9.83803 8.04048 7.06152 11.6406 7.06152C15.2407 7.06152 17.8799 9.60173 17.8799 12.969Z" fill="white"/>
<path d="M10.448 12.4371C10.448 13.3187 9.88219 14.2858 9.09148 14.2858C8.30076 14.2858 7.02344 13.5675 7.02344 12.2506C7.02344 11.0136 8.40333 10.5736 9.82921 10.7995C10.7031 10.938 10.448 11.5556 10.448 12.4371Z" fill="#D1D5DB"/>
<path d="M9.78583 12.3478C9.78583 12.4801 9.74606 12.5873 9.54721 12.5873C9.34836 12.5873 9.30859 12.4801 9.30859 12.3478C9.30859 12.2156 9.38813 12.1084 9.54721 12.1084C9.70629 12.1084 9.78583 12.2156 9.78583 12.3478Z" fill="white"/>
<path d="M12.8567 12.4371C12.8567 13.3187 13.4225 14.2858 14.2132 14.2858C15.0039 14.2858 16.2812 13.5675 16.2812 12.2506C16.2812 11.0136 14.9014 10.5736 13.4755 10.7995C12.6015 10.938 12.8567 11.5556 12.8567 12.4371Z" fill="#D1D5DB"/>
<path d="M13.5149 12.3478C13.5149 12.4801 13.5547 12.5873 13.7536 12.5873C13.9524 12.5873 13.9922 12.4801 13.9922 12.3478C13.9922 12.2156 13.9126 12.1084 13.7536 12.1084C13.5945 12.1084 13.5149 12.2156 13.5149 12.3478Z" fill="white"/>
<path fill-rule="evenodd" clip-rule="evenodd" d="M11.8535 18.0002C16.6495 18.0002 20.1654 16.6486 20.1654 13.0122C20.1654 8.46305 16.6495 5.03125 11.8535 5.03125C7.0575 5.03125 3.62109 8.78228 3.62109 13.0122C3.62109 16.6486 7.0575 18.0002 11.8535 18.0002ZM11.6646 16.6035C15.1925 16.6035 17.7787 15.6137 17.7787 12.9507C17.7787 9.61938 15.1925 7.10625 11.6646 7.10625C8.13682 7.10625 5.60908 9.85316 5.60908 12.9507C5.60908 15.6137 8.13682 16.6035 11.6646 16.6035Z" fill="white"/>
<mask id="mask0_181_4240" style="mask-type:alpha" maskUnits="userSpaceOnUse" x="0" y="0" width="24" height="24">
<circle cx="12" cy="12" r="12" fill="#9CA3AF"/>
</mask>
<g mask="url(#mask0_181_4240)">
<ellipse cx="11.75" cy="22.5" rx="6.75" ry="7.5" fill="white"/>
</g>
</g>
<defs>
<clipPath id="clip0_181_4240">
<rect width="24" height="24" fill="white"/>
</clipPath>
</defs>
</svg>
